<svg width="55" height="11" viewBox="0 0 55 11" fill="none" xmlns="http://www.w3.org/2000/svg">
<path d="M0.843672 10C0.750339 10 0.666339 9.96733 0.591672 9.902C0.526339 9.82733 0.493672 9.74333 0.493672 9.65V0.55C0.493672 0.447333 0.526339 0.363333 0.591672 0.298C0.666339 0.232666 0.750339 0.199999 0.843672 0.199999H7.38167C7.48434 0.199999 7.56834 0.232666 7.63367 0.298C7.69901 0.363333 7.73167 0.447333 7.73167 0.55V1.866C7.73167 1.95933 7.69901 2.04333 7.63367 2.118C7.56834 2.18333 7.48434 2.216 7.38167 2.216H2.91567V4.106H7.07367C7.17634 4.106 7.26034 4.14333 7.32567 4.218C7.39101 4.28333 7.42367 4.36733 7.42367 4.47V5.688C7.42367 5.78133 7.39101 5.86533 7.32567 5.94C7.26034 6.00533 7.17634 6.038 7.07367 6.038H2.91567V7.984H7.49367C7.59634 7.984 7.68034 8.01667 7.74567 8.082C7.81101 8.14733 7.84367 8.23133 7.84367 8.334V9.65C7.84367 9.74333 7.81101 9.82733 7.74567 9.902C7.68034 9.96733 7.59634 10 7.49367 10H0.843672ZM9.63108 10C9.52841 10 9.44441 9.96733 9.37908 9.902C9.31374 9.83667 9.28108 9.75267 9.28108 9.65V3.07C9.28108 2.96733 9.31374 2.88333 9.37908 2.818C9.44441 2.75267 9.52841 2.72 9.63108 2.72H11.2411C11.3437 2.72 11.4277 2.75267 11.4931 2.818C11.5677 2.88333 11.6051 2.96733 11.6051 3.07V3.602C11.8571 3.294 12.1791 3.04667 12.5711 2.86C12.9724 2.67333 13.4251 2.58 13.9291 2.58C14.7504 2.58 15.4177 2.86 15.9311 3.42C16.4444 3.97067 16.7011 4.74533 16.7011 5.744V9.65C16.7011 9.74333 16.6684 9.82733 16.6031 9.902C16.5377 9.96733 16.4537 10 16.3511 10H14.5871C14.4937 10 14.4097 9.96733 14.3351 9.902C14.2697 9.82733 14.2371 9.74333 14.2371 9.65V5.828C14.2371 5.38933 14.1297 5.05333 13.9151 4.82C13.7004 4.57733 13.3924 4.456 12.9911 4.456C12.5991 4.456 12.2911 4.57733 12.0671 4.82C11.8431 5.05333 11.7311 5.38933 11.7311 5.828V9.65C11.7311 9.74333 11.6984 9.82733 11.6331 9.902C11.5677 9.96733 11.4837 10 11.3811 10H9.63108ZM21.9191 10C19.9871 10 19.0211 9.08067 19.0211 7.242V4.554H17.9291C17.8265 4.554 17.7378 4.52133 17.6631 4.456C17.5978 4.39067 17.5651 4.30667 17.5651 4.204V3.07C17.5651 2.96733 17.5978 2.88333 17.6631 2.818C17.7378 2.75267 17.8265 2.72 17.9291 2.72H19.0211V0.409999C19.0211 0.307333 19.0538 0.223333 19.1191 0.158C19.1938 0.0926663 19.2778 0.0599995 19.3711 0.0599995H20.9951C21.0978 0.0599995 21.1818 0.0926663 21.2471 0.158C21.3125 0.223333 21.3451 0.307333 21.3451 0.409999V2.72H23.0951C23.1978 2.72 23.2818 2.75267 23.3471 2.818C23.4218 2.88333 23.4591 2.96733 23.4591 3.07V4.204C23.4591 4.30667 23.4218 4.39067 23.3471 4.456C23.2818 4.52133 23.1978 4.554 23.0951 4.554H21.3451V7.046C21.3451 7.73667 21.6111 8.082 22.1431 8.082H23.2211C23.3238 8.082 23.4078 8.11467 23.4731 8.18C23.5385 8.24533 23.5711 8.32933 23.5711 8.432V9.65C23.5711 9.74333 23.5385 9.82733 23.4731 9.902C23.4078 9.96733 23.3238 10 23.2211 10H21.9191ZM25.0803 10C24.9776 10 24.8936 9.96733 24.8283 9.902C24.763 9.83667 24.7303 9.75267 24.7303 9.65V3.07C24.7303 2.96733 24.763 2.88333 24.8283 2.818C24.8936 2.75267 24.9776 2.72 25.0803 2.72H26.6903C26.793 2.72 26.877 2.75733 26.9423 2.832C27.017 2.89733 27.0543 2.97667 27.0543 3.07V3.63C27.5676 3.02333 28.2583 2.72 29.1263 2.72H29.7423C29.845 2.72 29.929 2.75267 29.9943 2.818C30.0596 2.88333 30.0923 2.96733 30.0923 3.07V4.512C30.0923 4.60533 30.0596 4.68933 29.9943 4.764C29.929 4.82933 29.845 4.862 29.7423 4.862H28.3843C28.0016 4.862 27.703 4.96933 27.4883 5.184C27.283 5.38933 27.1803 5.68333 27.1803 6.066V9.65C27.1803 9.75267 27.143 9.83667 27.0683 9.902C27.003 9.96733 26.919 10 26.8163 10H25.0803ZM33.1487 10.14C32.654 10.14 32.2013 10.0467 31.7907 9.86C31.3893 9.664 31.072 9.40267 30.8387 9.076C30.6147 8.74 30.5027 8.37133 30.5027 7.97C30.5027 7.326 30.764 6.808 31.2867 6.416C31.8187 6.024 32.5467 5.75333 33.4707 5.604L35.2207 5.338V5.142C35.2207 4.78733 35.146 4.526 34.9967 4.358C34.8473 4.19 34.5953 4.106 34.2407 4.106C34.026 4.106 33.8487 4.14333 33.7087 4.218C33.5687 4.29267 33.424 4.39533 33.2747 4.526C33.144 4.638 33.046 4.71267 32.9807 4.75C32.9527 4.82467 32.9013 4.862 32.8267 4.862H31.3007C31.2073 4.862 31.128 4.834 31.0627 4.778C31.0067 4.71267 30.9833 4.638 30.9927 4.554C31.002 4.302 31.1233 4.022 31.3567 3.714C31.5993 3.406 31.9633 3.14 32.4487 2.916C32.9433 2.692 33.55 2.58 34.2687 2.58C35.4167 2.58 36.266 2.83667 36.8167 3.35C37.3673 3.854 37.6427 4.53533 37.6427 5.394V9.65C37.6427 9.74333 37.61 9.82733 37.5447 9.902C37.4793 9.96733 37.3953 10 37.2927 10H35.6687C35.5753 10 35.4913 9.96733 35.4167 9.902C35.3513 9.82733 35.3187 9.74333 35.3187 9.65V9.16C35.1133 9.44933 34.824 9.68733 34.4507 9.874C34.0867 10.0513 33.6527 10.14 33.1487 10.14ZM33.8067 8.544C34.236 8.544 34.5813 8.404 34.8427 8.124C35.1133 7.844 35.2487 7.43333 35.2487 6.892V6.696L34.0587 6.906C33.2187 7.05533 32.7987 7.34933 32.7987 7.788C32.7987 8.02133 32.8967 8.208 33.0927 8.348C33.2887 8.47867 33.5267 8.544 33.8067 8.544ZM41.9385 10.14C41.0238 10.14 40.3098 9.85533 39.7965 9.286C39.2925 8.70733 39.0172 7.89533 38.9705 6.85L38.9565 6.36L38.9705 5.856C39.0078 4.848 39.2832 4.05 39.7965 3.462C40.3192 2.874 41.0332 2.58 41.9385 2.58C42.7878 2.58 43.4738 2.85533 43.9965 3.406V0.409999C43.9965 0.307333 44.0292 0.223333 44.0945 0.158C44.1598 0.0926663 44.2438 0.0599995 44.3465 0.0599995H46.0545C46.1572 0.0599995 46.2412 0.0926663 46.3065 0.158C46.3718 0.223333 46.4045 0.307333 46.4045 0.409999V9.65C46.4045 9.74333 46.3718 9.82733 46.3065 9.902C46.2412 9.96733 46.1572 10 46.0545 10H44.4725C44.3792 10 44.2952 9.96733 44.2205 9.902C44.1552 9.82733 44.1225 9.74333 44.1225 9.65V9.202C43.6092 9.82733 42.8812 10.14 41.9385 10.14ZM42.7085 8.264C43.1285 8.264 43.4412 8.13333 43.6465 7.872C43.8518 7.60133 43.9685 7.256 43.9965 6.836C44.0058 6.71467 44.0105 6.53733 44.0105 6.304C44.0105 6.08 44.0058 5.90733 43.9965 5.786C43.9778 5.40333 43.8612 5.086 43.6465 4.834C43.4318 4.582 43.1192 4.456 42.7085 4.456C42.2698 4.456 41.9525 4.58667 41.7565 4.848C41.5698 5.10933 41.4625 5.46867 41.4345 5.926C41.4252 6.01933 41.4205 6.164 41.4205 6.36C41.4205 6.556 41.4252 6.70067 41.4345 6.794C41.4625 7.25133 41.5698 7.61067 41.7565 7.872C41.9525 8.13333 42.2698 8.264 42.7085 8.264ZM50.2385 10.14C49.7438 10.14 49.2912 10.0467 48.8805 9.86C48.4792 9.664 48.1618 9.40267 47.9285 9.076C47.7045 8.74 47.5925 8.37133 47.5925 7.97C47.5925 7.326 47.8538 6.808 48.3765 6.416C48.9085 6.024 49.6365 5.75333 50.5605 5.604L52.3105 5.338V5.142C52.3105 4.78733 52.2358 4.526 52.0865 4.358C51.9372 4.19 51.6852 4.106 51.3305 4.106C51.1158 4.106 50.9385 4.14333 50.7985 4.218C50.6585 4.29267 50.5138 4.39533 50.3645 4.526C50.2338 4.638 50.1358 4.71267 50.0705 4.75C50.0425 4.82467 49.9912 4.862 49.9165 4.862H48.3905C48.2972 4.862 48.2178 4.834 48.1525 4.778C48.0965 4.71267 48.0732 4.638 48.0825 4.554C48.0918 4.302 48.2132 4.022 48.4465 3.714C48.6892 3.406 49.0532 3.14 49.5385 2.916C50.0332 2.692 50.6398 2.58 51.3585 2.58C52.5065 2.58 53.3558 2.83667 53.9065 3.35C54.4572 3.854 54.7325 4.53533 54.7325 5.394V9.65C54.7325 9.74333 54.6998 9.82733 54.6345 9.902C54.5692 9.96733 54.4852 10 54.3825 10H52.7585C52.6652 10 52.5812 9.96733 52.5065 9.902C52.4412 9.82733 52.4085 9.74333 52.4085 9.65V9.16C52.2032 9.44933 51.9138 9.68733 51.5405 9.874C51.1765 10.0513 50.7425 10.14 50.2385 10.14ZM50.8965 8.544C51.3258 8.544 51.6712 8.404 51.9325 8.124C52.2032 7.844 52.3385 7.43333 52.3385 6.892V6.696L51.1485 6.906C50.3085 7.05533 49.8885 7.34933 49.8885 7.788C49.8885 8.02133 49.9865 8.208 50.1825 8.348C50.3785 8.47867 50.6165 8.544 50.8965 8.544Z" fill="white"/>
</svg>
