<svg width="38" height="12" viewBox="0 0 38 12" fill="none" xmlns="http://www.w3.org/2000/svg">
<path d="M4.31564 11.14C3.42897 11.14 2.66831 11.0093 2.03364 10.748C1.39897 10.4867 0.918307 10.146 0.591641 9.726C0.274307 9.29667 0.106307 8.83 0.0876406 8.326C0.0876406 8.25133 0.115641 8.186 0.171641 8.13C0.236974 8.06467 0.311641 8.032 0.395641 8.032H2.15964C2.27164 8.032 2.36031 8.05533 2.42564 8.102C2.50031 8.13933 2.57497 8.2 2.64964 8.284C2.77097 8.52667 2.96697 8.72733 3.23764 8.886C3.50831 9.04467 3.86764 9.124 4.31564 9.124C4.84764 9.124 5.25364 9.04 5.53364 8.872C5.81364 8.704 5.95364 8.47533 5.95364 8.186C5.95364 7.98067 5.87897 7.81267 5.72964 7.682C5.58964 7.55133 5.36564 7.43467 5.05764 7.332C4.74964 7.22933 4.29231 7.11267 3.68564 6.982C2.56564 6.74867 1.72564 6.408 1.16564 5.96C0.614974 5.50267 0.339641 4.854 0.339641 4.014C0.339641 3.44467 0.498307 2.936 0.815641 2.488C1.13297 2.04 1.58564 1.69 2.17364 1.438C2.76164 1.186 3.44764 1.06 4.23164 1.06C5.04364 1.06 5.74831 1.2 6.34564 1.48C6.94297 1.76 7.39564 2.11467 7.70364 2.544C8.02097 2.964 8.18897 3.37933 8.20764 3.79C8.20764 3.874 8.17964 3.944 8.12364 4C8.06764 4.056 7.99764 4.084 7.91364 4.084H6.06564C5.95364 4.084 5.86031 4.06533 5.78564 4.028C5.72031 3.99067 5.65964 3.93 5.60364 3.846C5.54764 3.63133 5.39364 3.44933 5.14164 3.3C4.89897 3.15067 4.59564 3.076 4.23164 3.076C3.81164 3.076 3.48964 3.15067 3.26564 3.3C3.04164 3.44933 2.92964 3.66867 2.92964 3.958C2.92964 4.154 2.99031 4.31733 3.11164 4.448C3.24231 4.57867 3.44764 4.7 3.72764 4.812C4.01697 4.91467 4.42764 5.022 4.95964 5.134C5.82764 5.29267 6.51831 5.49333 7.03164 5.736C7.55431 5.96933 7.93697 6.27733 8.17964 6.66C8.42231 7.03333 8.54364 7.50467 8.54364 8.074C8.54364 8.69933 8.36164 9.24533 7.99764 9.712C7.64297 10.1693 7.14364 10.524 6.49964 10.776C5.86497 11.0187 5.13697 11.14 4.31564 11.14ZM11.9748 11.14C11.4802 11.14 11.0275 11.0467 10.6168 10.86C10.2155 10.664 9.89818 10.4027 9.66484 10.076C9.44084 9.74 9.32884 9.37133 9.32884 8.97C9.32884 8.326 9.59018 7.808 10.1128 7.416C10.6448 7.024 11.3728 6.75333 12.2968 6.604L14.0468 6.338V6.142C14.0468 5.78733 13.9722 5.526 13.8228 5.358C13.6735 5.19 13.4215 5.106 13.0668 5.106C12.8522 5.106 12.6748 5.14333 12.5348 5.218C12.3948 5.29267 12.2502 5.39533 12.1008 5.526C11.9702 5.638 11.8722 5.71267 11.8068 5.75C11.7788 5.82467 11.7275 5.862 11.6528 5.862H10.1268C10.0335 5.862 9.95418 5.834 9.88884 5.778C9.83284 5.71267 9.80951 5.638 9.81884 5.554C9.82818 5.302 9.94951 5.022 10.1828 4.714C10.4255 4.406 10.7895 4.14 11.2748 3.916C11.7695 3.692 12.3762 3.58 13.0948 3.58C14.2428 3.58 15.0922 3.83667 15.6428 4.35C16.1935 4.854 16.4688 5.53533 16.4688 6.394V10.65C16.4688 10.7433 16.4362 10.8273 16.3708 10.902C16.3055 10.9673 16.2215 11 16.1188 11H14.4948C14.4015 11 14.3175 10.9673 14.2428 10.902C14.1775 10.8273 14.1448 10.7433 14.1448 10.65V10.16C13.9395 10.4493 13.6502 10.6873 13.2768 10.874C12.9128 11.0513 12.4788 11.14 11.9748 11.14ZM12.6328 9.544C13.0622 9.544 13.4075 9.404 13.6688 9.124C13.9395 8.844 14.0748 8.43333 14.0748 7.892V7.696L12.8848 7.906C12.0448 8.05533 11.6248 8.34933 11.6248 8.788C11.6248 9.02133 11.7228 9.208 11.9188 9.348C12.1148 9.47867 12.3528 9.544 12.6328 9.544ZM18.3987 11C18.296 11 18.212 10.9673 18.1467 10.902C18.0813 10.8367 18.0487 10.7527 18.0487 10.65V4.07C18.0487 3.96733 18.0813 3.88333 18.1467 3.818C18.212 3.75267 18.296 3.72 18.3987 3.72H20.0507C20.1533 3.72 20.2373 3.75267 20.3027 3.818C20.368 3.88333 20.4007 3.96733 20.4007 4.07V10.65C20.4007 10.7433 20.368 10.8273 20.3027 10.902C20.2373 10.9673 20.1533 11 20.0507 11H18.3987ZM18.4267 2.67C18.2773 2.67 18.2027 2.59533 18.2027 2.446C18.2027 2.37133 18.226 2.31067 18.2727 2.264L19.5047 0.766C19.598 0.654 19.6773 0.583999 19.7427 0.555999C19.808 0.518666 19.9013 0.499999 20.0227 0.499999H21.8707C21.9547 0.499999 22.02 0.527999 22.0667 0.584C22.1133 0.630666 22.1367 0.696 22.1367 0.78C22.1367 0.845333 22.1133 0.901333 22.0667 0.947999L20.2047 2.474C20.1207 2.53933 20.0413 2.59067 19.9667 2.628C19.892 2.656 19.794 2.67 19.6727 2.67H18.4267ZM24.7705 11.14C23.8558 11.14 23.1418 10.8553 22.6285 10.286C22.1245 9.70733 21.8492 8.89533 21.8025 7.85L21.7885 7.36L21.8025 6.856C21.8398 5.848 22.1152 5.05 22.6285 4.462C23.1512 3.874 23.8652 3.58 24.7705 3.58C25.6198 3.58 26.3058 3.85533 26.8285 4.406V1.41C26.8285 1.30733 26.8612 1.22333 26.9265 1.158C26.9918 1.09267 27.0758 1.06 27.1785 1.06H28.8865C28.9892 1.06 29.0732 1.09267 29.1385 1.158C29.2038 1.22333 29.2365 1.30733 29.2365 1.41V10.65C29.2365 10.7433 29.2038 10.8273 29.1385 10.902C29.0732 10.9673 28.9892 11 28.8865 11H27.3045C27.2112 11 27.1272 10.9673 27.0525 10.902C26.9872 10.8273 26.9545 10.7433 26.9545 10.65V10.202C26.4412 10.8273 25.7132 11.14 24.7705 11.14ZM25.5405 9.264C25.9605 9.264 26.2732 9.13333 26.4785 8.872C26.6838 8.60133 26.8005 8.256 26.8285 7.836C26.8378 7.71467 26.8425 7.53733 26.8425 7.304C26.8425 7.08 26.8378 6.90733 26.8285 6.786C26.8098 6.40333 26.6932 6.086 26.4785 5.834C26.2638 5.582 25.9512 5.456 25.5405 5.456C25.1018 5.456 24.7845 5.58667 24.5885 5.848C24.4018 6.10933 24.2945 6.46867 24.2665 6.926C24.2572 7.01933 24.2525 7.164 24.2525 7.36C24.2525 7.556 24.2572 7.70067 24.2665 7.794C24.2945 8.25133 24.4018 8.61067 24.5885 8.872C24.7845 9.13333 25.1018 9.264 25.5405 9.264ZM33.0705 11.14C32.5759 11.14 32.1232 11.0467 31.7125 10.86C31.3112 10.664 30.9939 10.4027 30.7605 10.076C30.5365 9.74 30.4245 9.37133 30.4245 8.97C30.4245 8.326 30.6859 7.808 31.2085 7.416C31.7405 7.024 32.4685 6.75333 33.3925 6.604L35.1425 6.338V6.142C35.1425 5.78733 35.0679 5.526 34.9185 5.358C34.7692 5.19 34.5172 5.106 34.1625 5.106C33.9479 5.106 33.7705 5.14333 33.6305 5.218C33.4905 5.29267 33.3459 5.39533 33.1965 5.526C33.0659 5.638 32.9679 5.71267 32.9025 5.75C32.8745 5.82467 32.8232 5.862 32.7485 5.862H31.2225C31.1292 5.862 31.0499 5.834 30.9845 5.778C30.9285 5.71267 30.9052 5.638 30.9145 5.554C30.9239 5.302 31.0452 5.022 31.2785 4.714C31.5212 4.406 31.8852 4.14 32.3705 3.916C32.8652 3.692 33.4719 3.58 34.1905 3.58C35.3385 3.58 36.1879 3.83667 36.7385 4.35C37.2892 4.854 37.5645 5.53533 37.5645 6.394V10.65C37.5645 10.7433 37.5319 10.8273 37.4665 10.902C37.4012 10.9673 37.3172 11 37.2145 11H35.5905C35.4972 11 35.4132 10.9673 35.3385 10.902C35.2732 10.8273 35.2405 10.7433 35.2405 10.65V10.16C35.0352 10.4493 34.7459 10.6873 34.3725 10.874C34.0085 11.0513 33.5745 11.14 33.0705 11.14ZM33.7285 9.544C34.1579 9.544 34.5032 9.404 34.7645 9.124C35.0352 8.844 35.1705 8.43333 35.1705 7.892V7.696L33.9805 7.906C33.1405 8.05533 32.7205 8.34933 32.7205 8.788C32.7205 9.02133 32.8185 9.208 33.0145 9.348C33.2105 9.47867 33.4485 9.544 33.7285 9.544Z" fill="white"/>
</svg>
